PathFileType	4	(X/Y/Z)	60_2_78_p0_0-278_filt_butterworth.trc
DataRate	CameraRate	NumFrames	NumMarkers	Units	OrigDataRate	OrigDataStartFrame	OrigNumFrames
59.0	59.0	4	27	m	59.0	0	278
Frame#	Time	RHip			RKnee			RAnkle			RBigToe			RSmallToe			RHeel			LHip			LKnee			LAnkle			LBigToe			LSmallToe			LHeel			Neck			Head			Nose			RShoulder			RElbow			RWrist			RThumb			RIndex			RPinky			LShoulder			LElbow			LWrist			LThumb			LIndex			LPinky			
		X1	Y1	Z1	X2	Y2	Z2	X3	Y3	Z3	X4	Y4	Z4	X5	Y5	Z5	X6	Y6	Z6	X7	Y7	Z7	X8	Y8	Z8	X9	Y9	Z9	X10	Y10	Z10	X11	Y11	Z11	X12	Y12	Z12	X13	Y13	Z13	X14	Y14	Z14	X15	Y15	Z15	X16	Y16	Z16	X17	Y17	Z17	X18	Y18	Z18	X19	Y19	Z19	X20	Y20	Z20	X21	Y21	Z21	X22	Y22	Z22	X23	Y23	Z23	X24	Y24	Z24	X25	Y25	Z25	X26	Y26	Z26	X27	Y27	Z27	
0	0.0	0.35913896495533304	0.4190949456252346	-0.1414511931207934	0.3699157983927065	0.5754868785741317	0.2510377607494023	0.3556368598010137	0.7833703388348771	0.6446187623030145	0.33573339199265356	0.5613098913055813	0.6862379017248487	0.3836789019730017	0.610374098494967	0.6833055465585605	0.3332997236816499	0.848901709754837	0.679015774624952	0.14340974511457136	0.39807765119657684	-0.1438976163457636	0.10820429465652642	0.6378079426220649	0.24218373763366485	0.09459390557649	0.7793387162135815	0.6243356580842213	0.09096009615187645	0.5730913196659664	0.6720525488885054	0.026650316849731487	0.6400637420771631	0.6665194710207569	0.0997917368593319	0.8513377472223856	0.685624521529546	0.25876865264269194	0.227112087446821	-0.7095894150370947	0.26582276548610273	0.10629586472945896	-0.9210663393894539	0.2635864571861596	0.04716318708215279	-0.760658319694056	0.4279819744683672	0.24591195700496188	-0.6398855348109072	0.5198807192946616	0.2556847110797229	-0.3698330127263953	0.35862072253059146	0.22050751510730854	-0.21346460282294424	0.2082491943069442	0.26808632686757433	-0.20231434203418636	0.20691898175431173	0.2694204704230666	-0.16444914611676734	0.252878091161	0.22299870216992979	-0.1161692999844774	0.08787505202191062	0.261031334656371	-0.647885365352765	0.026567114487224076	0.23794309258848917	-0.3785890204392095	0.185783097493742	0.19502292580384514	-0.20648411817602388	0.2710751296912004	0.20010157552629132	-0.19320628756695968	0.27724178660213705	0.22238048668965735	-0.1559456011490506	0.2560435445175943	0.23717630641160797	-0.1172366681797432
1	0.0169491525423728	0.35885191224118906	0.4197698371141992	-0.13940175873571548	0.3666662388344611	0.5881427896193191	0.2546060286747316	0.35632223901809523	0.7816277221750558	0.6414261358376705	0.3330334032888931	0.560979024364805	0.6861420733290897	0.38373326544764486	0.6098931281347676	0.68472591738301	0.33569840275660806	0.8494217585972366	0.6776944652933713	0.14092998125885337	0.404722670611168	-0.143883773079687	0.1076992414144765	0.638267753469652	0.2444579013597169	0.09463622401761486	0.7790374526618725	0.6242118929202861	0.09038191677097551	0.5764333494578421	0.6725319709444642	0.029323576867283138	0.6402870984112486	0.6663336846190931	0.10331666896769381	0.8502961682401304	0.6828070253140719	0.2587921977972631	0.22705828705137737	-0.7095892505585214	0.26581318188460085	0.10629417448513574	-0.9225528396573922	0.2636148645082541	0.047117236301972704	-0.7606950223506469	0.4279758067689909	0.24589373744306867	-0.6398783035476916	0.5195931915527185	0.2547207770354826	-0.37178034088133577	0.35868305123131156	0.2206788563755021	-0.21354953457629944	0.20884492738938237	0.2686437783587912	-0.20225547729220184	0.20797126940306454	0.2729127512101975	-0.16358792528105057	0.255865039382962	0.22620821440008299	-0.11626103999908007	0.08771443650103825	0.26016723191006913	-0.6488376748202196	0.026517539447671663	0.23801906034199571	-0.3785858400263099	0.18553743757937965	0.194194136690277	-0.20856164917273254	0.2718033732528877	0.2003404584449277	-0.19301340637162626	0.27996610765491015	0.2164100399162953	-0.15527956105417262	0.25484599864627655	0.23677161693754994	-0.11917718189164123
2	0.0338983050847457	0.35868553539674125	0.42015544825774787	-0.13819493556370435	0.36554047942194795	0.5922643030417333	0.2562712452073573	0.3567361620210934	0.7805637744861522	0.6395010845285706	0.3314295999207023	0.5607985660873676	0.6860653621964024	0.3838269655874188	0.6096557641409156	0.6859614782719928	0.3370758042088513	0.8495808659472224	0.6766551811283971	0.14022988266720587	0.4060403014289135	-0.143880190645481	0.10739105933886534	0.6385241094047958	0.2458043523541876	0.09460931839095996	0.7788893273204532	0.6241329143046394	0.09138998164818304	0.5764634814282263	0.6723293641941381	0.03091875716173205	0.6403937657130161	0.6662511991933061	0.10540008365765399	0.849678090559405	0.6811481146269494	0.25881016563021003	0.22700104782445965	-0.7095857211343697	0.2658212767310934	0.10631138087681458	-0.9233993873461973	0.2636345122545338	0.047108340840889204	-0.7607185268794621	0.4279728468682651	0.2458720618498453	-0.6398752572917138	0.5194260890722326	0.25429750994014627	-0.3723533289191936	0.35876418313716957	0.2207987370989258	-0.21362949278165902	0.21001103417641132	0.26963264770321094	-0.20220746100064407	0.20857339029229108	0.27460544486556643	-0.16316881715561998	0.25946993434126037	0.22753742696560025	-0.11668227539554646	0.08764822908351481	0.2595046735247507	-0.6498187245079894	0.026514737232604547	0.23816720003643888	-0.37860099320772783	0.18544466651317465	0.19367186817391127	-0.2098340930154351	0.27361705366900474	0.20094982564981517	-0.19297008292096185	0.28230095685055767	0.21287876693039792	-0.15493997712713875	0.2543448848798446	0.23648737874884881	-0.12036169859001261
3	0.0508474576271186	0.3586465547198764	0.4202500285560248	-0.13787377531056644	0.3659274684357642	0.590492573266562	0.2563929044526654	0.3568453731941885	0.7802148718025321	0.6389421649131455	0.3310166597999967	0.560780318775147	0.6860349170054981	0.38396716050978974	0.6097691194032565	0.6866146471211093	0.33730657005407644	0.8492032526439577	0.6757093089805296	0.14118783666391233	0.4025036083947694	-0.1439293308951301	0.10729431722477567	0.638591486269026	0.24616573651291304	0.0945276383794714	0.7789040440788977	0.6241099846949927	0.09312477140864607	0.5742932943664425	0.6717098099585039	0.03136216516498412	0.6403747761151031	0.6662618312558214	0.10594873963612532	0.8495214339125754	0.6807093663959449	0.2588198010382095	0.22695712769980902	-0.7095773307084883	0.2658431189790087	0.10634087108134975	-0.9235687250662815	0.263640947038241	0.047129402643540375	-0.7607184458070162	0.4279725620178188	0.2458535413492936	-0.6398773762606647	0.5194761338320822	0.2546706938781091	-0.3716566101840198	0.3588499385840933	0.22085427275018782	-0.21365877785599569	0.21154855937331538	0.27105009578727185	-0.20215328052642823	0.20852493860588847	0.27386329897380063	-0.16352212910148967	0.26310175061759794	0.2264724970519129	-0.11754580090683642	0.08766326642127863	0.2591038878277485	-0.650535678585744	0.026560856653317422	0.23840079859202057	-0.37863817858433835	0.18550643089506347	0.19350615189017234	-0.21023584141996116	0.2762426387114655	0.20214976583555608	-0.19309713658621236	0.28416968076739474	0.2119229968775863	-0.15489593887345693	0.2547431267399693	0.23630855620292865	-0.12083095674276573
